<?xml version="1.0" encoding="utf-8"?><svg width="648" height="71" viewBox="0 0 648 71" fill="none" xmlns="http://www.w3.org/2000/svg">
<path d="M5.436 26.956C5.436 28.8307 6.22133 30.3 7.792 31.364C9.36267 32.428 11.2627 33.2387 13.492 33.796C15.772 34.3027 18.052 34.8853 20.332 35.544C22.612 36.2027 24.5373 37.3173 26.108 38.888C27.6787 40.408 28.464 42.46 28.464 45.044C28.464 48.1853 27.1973 50.7693 24.664 52.796C22.1813 54.8227 18.9133 55.836 14.86 55.836C11.212 55.836 8.12133 55.076 5.588 53.556C3.10533 51.9853 1.38267 49.9333 0.42 47.4L3.688 45.5C4.39733 47.5773 5.71467 49.224 7.64 50.44C9.616 51.6053 12.0227 52.188 14.86 52.188C17.6973 52.188 20.028 51.58 21.852 50.364C23.7267 49.0973 24.664 47.324 24.664 45.044C24.664 43.1693 23.8787 41.6747 22.308 40.56C20.7373 39.4453 18.812 38.6347 16.532 38.128C14.252 37.5707 11.972 36.9627 9.692 36.304C7.46267 35.6453 5.56267 34.556 3.992 33.036C2.42133 31.516 1.636 29.4893 1.636 26.956C1.636 23.916 2.82667 21.3573 5.208 19.28C7.64 17.2027 10.756 16.164 14.556 16.164C17.596 16.164 20.2307 16.848 22.46 18.216C24.74 19.584 26.412 21.4333 27.476 23.764L24.284 25.588C23.524 23.7133 22.2573 22.2947 20.484 21.332C18.7107 20.3187 16.7347 19.812 14.556 19.812C11.972 19.812 9.79333 20.4707 8.02 21.788C6.29733 23.0547 5.436 24.7773 5.436 26.956ZM60.8406 16.164C66.3126 16.164 70.9486 18.0893 74.7486 21.94C78.5993 25.74 80.5246 30.4267 80.5246 36C80.5246 41.5733 78.5993 46.2853 74.7486 50.136C70.9486 53.936 66.3126 55.836 60.8406 55.836C57.2433 55.836 54.0006 54.9747 51.1126 53.252C48.2753 51.5293 46.0713 49.1733 44.5006 46.184V70.2H40.7006V17H44.5006V25.816C46.0713 22.8267 48.2753 20.4707 51.1126 18.748C54.0006 17.0253 57.2433 16.164 60.8406 16.164ZM49.1366 47.476C52.2779 50.6173 56.1033 52.188 60.6126 52.188C65.1219 52.188 68.9219 50.6173 72.0126 47.476C75.1539 44.3347 76.7246 40.5093 76.7246 36C76.7246 31.4907 75.1539 27.6653 72.0126 24.524C68.9219 21.3827 65.1219 19.812 60.6126 19.812C56.1033 19.812 52.2779 21.3827 49.1366 24.524C46.0459 27.6653 44.5006 31.4907 44.5006 36C44.5006 40.5093 46.0459 44.3347 49.1366 47.476ZM110.129 55.836C104.556 55.836 99.8183 53.936 95.917 50.136C92.0663 46.2853 90.141 41.5733 90.141 36C90.141 30.4267 92.0663 25.74 95.917 21.94C99.8183 18.0893 104.556 16.164 110.129 16.164C115.652 16.164 120.338 18.0893 124.189 21.94C128.09 25.74 130.041 30.4267 130.041 36C130.041 41.5733 128.09 46.2853 124.189 50.136C120.338 53.936 115.652 55.836 110.129 55.836ZM98.653 47.476C101.794 50.6173 105.62 52.188 110.129 52.188C114.638 52.188 118.438 50.6173 121.529 47.476C124.62 44.3347 126.165 40.5093 126.165 36C126.165 31.4907 124.62 27.6653 121.529 24.524C118.438 21.3827 114.638 19.812 110.129 19.812C105.62 19.812 101.794 21.3827 98.653 24.524C95.5623 27.6653 94.017 31.4907 94.017 36C94.017 40.5093 95.5623 44.3347 98.653 47.476ZM146.026 24.448C148.306 19.128 152.537 16.468 158.718 16.468V20.116C155.121 20.116 152.106 21.2813 149.674 23.612C147.242 25.892 146.026 29.312 146.026 33.872V55H142.226V17H146.026V24.448ZM189.437 20.724H178.113V45.424C178.113 47.6027 178.518 49.1733 179.329 50.136C180.139 51.0987 181.381 51.656 183.053 51.808C184.725 51.9093 186.853 51.8333 189.437 51.58V55C184.319 55.76 180.494 55.4053 177.961 53.936C175.478 52.4667 174.237 49.6293 174.237 45.424V20.724H165.877V17H174.237V7.5L178.113 6.36V17H189.437V20.724ZM240.428 53.556L236.856 55.608L230.7 49.148C226.799 53.6067 221.504 55.836 214.816 55.836C209.547 55.836 205.341 54.4933 202.2 51.808C199.059 49.072 197.488 45.424 197.488 40.864C197.488 37.52 198.4 34.48 200.224 31.744C202.048 28.9573 204.657 26.8293 208.052 25.36C205.215 22.0667 203.796 18.596 203.796 14.948C203.796 10.7427 205.265 7.37333 208.204 4.84C211.143 2.256 214.689 0.963998 218.844 0.963998C222.239 0.963998 225.279 1.85066 227.964 3.624C230.649 5.39733 232.549 7.85466 233.664 10.996L230.32 12.972C229.509 10.4893 228.065 8.51333 225.988 7.044C223.961 5.57466 221.605 4.84 218.92 4.84C215.728 4.84 213.093 5.77733 211.016 7.652C208.939 9.52666 207.9 11.908 207.9 14.796C207.9 16.772 208.381 18.5707 209.344 20.192C210.307 21.7627 211.751 23.536 213.676 25.512L230.32 42.916C231.941 39.9267 233.005 36.4053 233.512 32.352L237.084 34.404C236.375 38.812 235.057 42.6373 233.132 45.88L240.428 53.556ZM214.664 51.96C220.187 51.96 224.62 50.06 227.964 46.26L210.864 28.324C207.723 29.4893 205.392 31.212 203.872 33.492C202.352 35.7213 201.592 38.1533 201.592 40.788C201.592 44.284 202.757 47.02 205.088 48.996C207.469 50.972 210.661 51.96 214.664 51.96ZM267.008 16.164C272.582 16.164 277.091 18.14 280.536 22.092C284.032 26.044 285.78 30.7307 285.78 36.152C285.78 36.3547 285.755 36.6587 285.704 37.064C285.704 37.4693 285.704 37.7733 285.704 37.976H251.276C251.732 42.232 253.43 45.6773 256.368 48.312C259.358 50.896 263.031 52.188 267.388 52.188C270.428 52.188 273.088 51.5547 275.368 50.288C277.648 49.0213 279.371 47.3493 280.536 45.272L283.88 47.248C282.31 49.8827 280.08 51.9853 277.192 53.556C274.304 55.076 271.011 55.836 267.312 55.836C261.486 55.836 256.698 53.9867 252.948 50.288C249.199 46.5387 247.324 41.776 247.324 36C247.324 30.3253 249.148 25.6133 252.796 21.864C256.495 18.064 261.232 16.164 267.008 16.164ZM267.008 19.812C262.702 19.812 259.104 21.1547 256.216 23.84C253.328 26.5253 251.682 29.996 251.276 34.252H281.828C281.423 29.7427 279.802 26.2213 276.964 23.688C274.178 21.104 270.859 19.812 267.008 19.812ZM331.218 17H335.018V70.2H331.218V46.184C329.648 49.1733 327.418 51.5293 324.53 53.252C321.693 54.9747 318.476 55.836 314.878 55.836C309.406 55.836 304.745 53.936 300.894 50.136C297.094 46.2853 295.194 41.5733 295.194 36C295.194 30.4267 297.094 25.74 300.894 21.94C304.745 18.0893 309.406 16.164 314.878 16.164C318.476 16.164 321.693 17.0253 324.53 18.748C327.418 20.4707 329.648 22.8267 331.218 25.816V17ZM303.63 47.476C306.772 50.6173 310.597 52.188 315.106 52.188C319.616 52.188 323.416 50.6173 326.506 47.476C329.648 44.3347 331.218 40.5093 331.218 36C331.218 31.4907 329.648 27.6653 326.506 24.524C323.416 21.3827 319.616 19.812 315.106 19.812C310.597 19.812 306.772 21.3827 303.63 24.524C300.54 27.6653 298.994 31.4907 298.994 36C298.994 40.5093 300.54 44.3347 303.63 47.476ZM377.087 17H380.887V55H377.087V47.78C374.351 53.1507 369.816 55.836 363.483 55.836C358.973 55.836 355.376 54.468 352.691 51.732C350.056 48.9453 348.739 45.2467 348.739 40.636V17H352.615V40.636C352.615 44.1827 353.577 46.9947 355.503 49.072C357.479 51.1493 360.24 52.188 363.787 52.188C367.688 52.188 370.88 50.896 373.363 48.312C375.845 45.728 377.087 41.9787 377.087 37.064V17ZM399.693 6.968C399.085 7.52533 398.376 7.804 397.565 7.804C396.754 7.804 396.045 7.52533 395.437 6.968C394.829 6.36 394.525 5.62533 394.525 4.764C394.525 3.95333 394.829 3.26933 395.437 2.712C396.045 2.104 396.754 1.8 397.565 1.8C398.376 1.8 399.085 2.104 399.693 2.712C400.301 3.26933 400.605 3.95333 400.605 4.764C400.605 5.62533 400.301 6.36 399.693 6.968ZM395.665 55V17H399.465V55H395.665ZM434.357 16.164C439.829 16.164 444.465 18.0893 448.265 21.94C452.116 25.74 454.041 30.4267 454.041 36C454.041 41.5733 452.116 46.2853 448.265 50.136C444.465 53.936 439.829 55.836 434.357 55.836C430.76 55.836 427.517 54.9747 424.629 53.252C421.792 51.5293 419.588 49.1733 418.017 46.184V70.2H414.217V17H418.017V25.816C419.588 22.8267 421.792 20.4707 424.629 18.748C427.517 17.0253 430.76 16.164 434.357 16.164ZM422.653 47.476C425.794 50.6173 429.62 52.188 434.129 52.188C438.638 52.188 442.438 50.6173 445.529 47.476C448.67 44.3347 450.241 40.5093 450.241 36C450.241 31.4907 448.67 27.6653 445.529 24.524C442.438 21.3827 438.638 19.812 434.129 19.812C429.62 19.812 425.794 21.3827 422.653 24.524C419.562 27.6653 418.017 31.4907 418.017 36C418.017 40.5093 419.562 44.3347 422.653 47.476ZM506.825 16.164C510.98 16.164 514.324 17.456 516.857 20.04C519.391 22.624 520.657 26.2467 520.657 30.908V55H516.857V30.908C516.857 27.3613 515.92 24.6253 514.045 22.7C512.221 20.7747 509.789 19.812 506.749 19.812C503.355 19.812 500.593 20.9773 498.465 23.308C496.388 25.6387 495.349 29.1347 495.349 33.796V55H491.549V30.908C491.549 27.3613 490.663 24.6253 488.889 22.7C487.167 20.7747 484.811 19.812 481.821 19.812C478.477 19.812 475.665 21.0027 473.385 23.384C471.156 25.7147 470.041 29.1853 470.041 33.796V55H466.241V17H470.041V23.536C472.676 18.6213 476.755 16.164 482.277 16.164C485.064 16.164 487.496 16.848 489.573 18.216C491.651 19.5333 493.171 21.4333 494.133 23.916C495.451 21.332 497.224 19.4067 499.453 18.14C501.733 16.8227 504.191 16.164 506.825 16.164ZM551.545 16.164C557.119 16.164 561.628 18.14 565.073 22.092C568.569 26.044 570.317 30.7307 570.317 36.152C570.317 36.3547 570.292 36.6587 570.241 37.064C570.241 37.4693 570.241 37.7733 570.241 37.976H535.813C536.269 42.232 537.967 45.6773 540.905 48.312C543.895 50.896 547.568 52.188 551.925 52.188C554.965 52.188 557.625 51.5547 559.905 50.288C562.185 49.0213 563.908 47.3493 565.073 45.272L568.417 47.248C566.847 49.8827 564.617 51.9853 561.729 53.556C558.841 55.076 555.548 55.836 551.849 55.836C546.023 55.836 541.235 53.9867 537.485 50.288C533.736 46.5387 531.861 41.776 531.861 36C531.861 30.3253 533.685 25.6133 537.333 21.864C541.032 18.064 545.769 16.164 551.545 16.164ZM551.545 19.812C547.239 19.812 543.641 21.1547 540.753 23.84C537.865 26.5253 536.219 29.996 535.813 34.252H566.365C565.96 29.7427 564.339 26.2213 561.501 23.688C558.715 21.104 555.396 19.812 551.545 19.812ZM599.643 16.164C604.153 16.164 607.725 17.5573 610.359 20.344C613.045 23.08 614.387 26.7533 614.387 31.364V55H610.511V31.364C610.511 27.8173 609.523 25.0053 607.547 22.928C605.622 20.8507 602.886 19.812 599.339 19.812C595.438 19.812 592.246 21.104 589.763 23.688C587.281 26.272 586.039 30.0213 586.039 34.936V55H582.239V17H586.039V24.22C588.775 18.8493 593.31 16.164 599.643 16.164ZM647.634 20.724H636.31V45.424C636.31 47.6027 636.715 49.1733 637.526 50.136C638.336 51.0987 639.578 51.656 641.25 51.808C642.922 51.9093 645.05 51.8333 647.634 51.58V55C642.516 55.76 638.691 55.4053 636.158 53.936C633.675 52.4667 632.434 49.6293 632.434 45.424V20.724H624.074V17H632.434V7.5L636.31 6.36V17H647.634V20.724Z" fill="white"/>
</svg>
