<svg id="Слой_1" data-name="Слой 1" xmlns="http://www.w3.org/2000/svg" viewBox="0 0 77 85.5"><defs><style>.cls-1,.cls-2{stroke:#2F2F2F;fill:#2F2F2F;}.cls-1{stroke-miterlimit:10;}.cls-2{stroke-linecap:round;stroke-linejoin:round;stroke-width:3px;}</style></defs><title>calendar_menu</title><path class="cls-1" d="M12,90H88V32H12ZM68,37H82V51H68Zm0,17H82V68H68Zm0,17H82V85H68ZM51,37H65V51H51Zm0,17H65V68H51Zm0,17H65V85H51ZM34,37H48V51H34Zm0,17H48V68H34Zm0,17H48V85H34ZM17,37H31V51H17Zm0,17H31V68H17Zm0,17H31V85H17Z" transform="translate(-11.5 -5)"/><path class="cls-1" d="M12,14V28H88V14ZM32.5,27A5.5,5.5,0,1,1,38,21.5,5.5,5.5,0,0,1,32.5,27Zm35,0A5.5,5.5,0,1,1,73,21.5,5.5,5.5,0,0,1,67.5,27Z" transform="translate(-11.5 -5)"/><line class="cls-2" x1="21" y1="17.5" x2="21" y2="1.5"/><line class="cls-2" x1="56" y1="17.5" x2="56" y2="1.5"/></svg>